<svg width="28" height="28" viewBox="0 0 28 28" fill="none" xmlns="http://www.w3.org/2000/svg">
<path d="M19.3635 21.6711H10.2727V9.07434H14.25V14.2988L16.2624 12.76L18.2273 14.2988V9.07434H20.5V20.5254C20.503 21.155 19.995 21.6682 19.3651 21.6711H19.3635ZM8.56819 7.92899V8.50162C8.56819 8.81804 8.82244 9.07434 9.13636 9.07434H10.8328L10.3438 21.6711H9.13636C8.5062 21.6684 7.99752 21.1554 8.00001 20.5254V7.92899C7.99787 7.2991 8.50656 6.78667 9.13636 6.78418H19.364C19.7834 6.78418 20.1455 7.01555 20.3425 7.35636H9.13645C8.82244 7.35636 8.56819 7.61356 8.56819 7.92899Z" fill="#126DFF"/>
<path opacity="0.5" d="M16.2402 12.111L14.7959 13.2558V8.60343H17.6372V13.2558L16.2402 12.111Z" fill="#126DFF"/>
</svg>
