<svg width="28" height="28" viewBox="0 0 28 28" fill="none" xmlns="http://www.w3.org/2000/svg">
<g clip-path="url(#clip0_1411_7093)">
<path d="M14.9434 16.3026V6.76569C14.9434 6.08597 15.2018 5.34961 15.8815 5.34961H18.2747C18.9544 5.34961 19.6625 5.61512 19.6625 6.29484V13.4705L19.5031 13.7112C18.1695 14.8707 16.6182 15.7528 14.9398 16.3061L14.9434 16.3026ZM8.80469 17.2443V9.9338C8.80469 9.80984 8.82916 9.6871 8.87671 9.57261C8.92425 9.45813 8.99393 9.35416 9.08175 9.26667C9.16957 9.17918 9.2738 9.10989 9.38846 9.06278C9.50312 9.01566 9.62596 8.99165 9.74992 8.99211H12.5821C12.8322 8.99211 13.072 9.09121 13.2492 9.26771C13.4264 9.44421 13.5264 9.68373 13.5273 9.9338V16.777C12.2999 17.0717 11.0404 17.2109 9.77824 17.1912C9.45518 17.2296 9.13 17.2473 8.80469 17.2443ZM9.77824 19.6162C11.0418 19.5905 12.2988 19.4279 13.5273 19.1312V20.7845C13.5273 20.9723 13.4527 21.1524 13.3199 21.2852C13.1871 21.4179 13.007 21.4925 12.8193 21.4925H9.51273C9.32494 21.4925 9.14485 21.4179 9.01207 21.2852C8.87928 21.1524 8.80469 20.9723 8.80469 20.7845V19.6056C9.12883 19.6277 9.4541 19.6277 9.77824 19.6056V19.6162ZM15.4142 18.6179C16.8951 18.1661 18.3202 17.5486 19.6625 16.777V20.5544C19.6606 20.8032 19.5607 21.0413 19.3844 21.2169C19.2081 21.3926 18.9696 21.4916 18.7208 21.4925H15.8886C15.2089 21.4925 14.9505 21.227 14.9505 20.5473V19.1312C15.2054 19.0569 15.17 18.6958 15.4248 18.6108L15.4142 18.6179Z" fill="#F8AB42"/>
<path opacity="0.5" d="M15.2215 18.0407C13.468 18.65 11.6292 18.9785 9.77316 19.0143C7.58887 19.0143 5.98162 18.416 5.58866 17.2725C5.1957 16.129 6.13385 14.6492 7.91102 13.3217V14.9006C6.94809 15.7892 6.63301 16.5362 6.75338 16.8902C6.90207 17.3327 7.91456 17.8106 9.77316 17.8106C11.496 17.7695 13.2018 17.4589 14.8286 16.8902C16.7116 16.2979 18.4628 15.3483 19.9866 14.0934C21.0239 13.1659 21.3638 12.3871 21.2398 12.026C21.1549 11.7781 20.7973 11.5162 20.1778 11.3356V10.0859C21.3425 10.3444 22.1532 10.8683 22.4152 11.6365C23.0914 13.619 19.8733 16.4866 15.2321 18.0443L15.2215 18.0407Z" fill="#F8AB42"/>
</g>
<defs>
<clipPath id="clip0_1411_7093">
<rect width="17" height="17" fill="white" transform="translate(5.5 4.5)"/>
</clipPath>
</defs>
</svg>
