<svg width="28" height="28" viewBox="0 0 28 28" fill="none" xmlns="http://www.w3.org/2000/svg">
<g clip-path="url(#clip0_1411_7084)">
<path d="M17.8042 9.20689C17.8042 7.11956 16.1344 5.5332 14.0471 5.5332C11.9598 5.5332 10.2899 7.20306 10.2899 9.20689C10.2899 11.2107 11.9598 12.8806 14.0471 12.8806C16.0509 12.8806 17.8042 11.2107 17.8042 9.20689ZM19.7246 19.3095H17.1363C16.9693 19.3095 16.8858 19.1425 16.8858 19.059C16.8858 18.892 17.0528 18.8085 17.1363 18.8085H19.7246C19.8915 18.8085 19.9751 18.9755 19.9751 19.059C20.0585 19.1425 19.8915 19.3095 19.7246 19.3095ZM19.2236 13.0475H17.6372L14.548 22.4822H19.2236C20.3925 22.4822 21.2274 21.5638 21.2274 20.4784V15.0514C21.3109 13.8825 20.3925 13.0475 19.2236 13.0475ZM8.78703 13.0475C7.61814 13.0475 6.7832 13.966 6.7832 15.0514V20.4784C6.7832 21.5638 7.70163 22.4822 8.78703 22.4822H13.5461L10.3734 13.0475L8.78703 13.0475Z" fill="#02B589"/>
<path d="M12.2109 14.9677L14.0478 13.4648L15.8846 14.9677L14.0478 20.4782L12.2109 14.9677Z" fill="#80DAC4"/>
</g>
<defs>
<clipPath id="clip0_1411_7084">
<rect width="17" height="17" fill="white" transform="translate(5.5 5.5)"/>
</clipPath>
</defs>
</svg>
