<svg width="28" height="28" viewBox="0 0 28 28" fill="none" xmlns="http://www.w3.org/2000/svg">
<path d="M13.9801 15.3062C14.8665 15.3062 14.8976 14.2168 14.8976 13.5225H12.6477C12.6628 14.0812 12.6652 15.3224 13.5477 15.3224C13.5477 15.3224 13.7946 15.3062 13.9801 15.3062ZM15.7976 13.5225C15.7976 13.5225 16.5109 16.2224 13.7724 16.2224C10.945 16.2224 11.7477 13.5225 11.7477 13.5225H6.34766V19.8224C6.34766 20.5137 6.95454 21.1724 7.69765 21.1724H20.2976C20.9735 21.1724 21.6476 20.5901 21.6476 19.8224V13.5225H15.7976Z" fill="#F8AB42"/>
<path d="M17.1476 9.02227V7.22227C17.1617 6.79381 16.6528 6.32227 16.2476 6.32227H11.2976C10.8828 6.32227 10.3976 6.776 10.3976 7.22227V9.02227H7.69765C7.02528 9.02227 6.34766 9.73967 6.34766 10.3722V12.6222H21.6476V10.3722C21.6476 9.70229 20.9658 9.02227 20.2977 9.02227H17.1476ZM15.7976 9.02227H11.7476V8.12227C11.7476 7.84915 11.9256 7.67228 12.1976 7.67228H15.3476C15.6194 7.67228 15.7976 7.84917 15.7976 8.12227L15.7976 9.02227Z" fill="#FBD5A0"/>
</svg>
