<svg width="28" height="28" viewBox="0 0 28 28" fill="none" xmlns="http://www.w3.org/2000/svg">
<path d="M21.3642 9.91773V10.2896C21.3642 10.3565 21.3642 10.5021 21.3281 10.6115C21.2545 11.0433 21.0991 11.4569 20.8701 11.8302C20.7166 12.0854 20.5273 12.3172 20.3081 12.5187C20.204 12.6101 20.1062 12.7015 19.9968 12.7865C19.7482 12.9592 19.4768 13.0966 19.1903 13.1945C18.9265 13.3018 18.6502 13.3753 18.368 13.4134C18.2763 13.4242 18.184 13.4303 18.0917 13.4314H17.5668C17.4775 13.4302 17.3903 13.459 17.3193 13.5132C17.303 13.5255 17.2877 13.539 17.2736 13.5536L15.7468 15.0889L10.1538 20.6979L9.98908 20.8562C9.6883 21.1281 9.31453 21.3061 8.91383 21.3683H8.19345C8.03305 21.3402 7.87674 21.2924 7.72808 21.2259C7.64801 21.1897 7.5703 21.1486 7.49539 21.1027C7.20974 20.9235 6.97256 20.6769 6.80476 20.3844C6.66618 20.1464 6.57524 19.8837 6.53701 19.6109C6.52375 19.5027 6.5202 19.3936 6.52639 19.2847C6.54059 18.9649 6.63288 18.6533 6.7952 18.3774C6.88629 18.2108 6.99921 18.0572 7.13095 17.9205L14.2858 10.7592L14.323 10.7582C14.3649 10.7141 14.396 10.661 14.4141 10.603C14.4321 10.5449 14.4366 10.4835 14.4271 10.4235C14.4271 10.2769 14.4271 10.1366 14.39 9.99104C14.3825 9.88563 14.3825 9.77982 14.39 9.67442C14.4048 9.52035 14.4271 9.36842 14.4569 9.21754C14.5321 8.90365 14.6516 8.60206 14.8118 8.32185C15.0329 7.92344 15.3296 7.57193 15.6851 7.28698C15.8254 7.17754 15.9773 7.0851 16.124 6.98842C16.303 6.87501 16.4958 6.78502 16.6977 6.72067C16.8666 6.66329 17.0377 6.61654 17.2109 6.58042C17.3862 6.54004 17.5636 6.51242 17.7421 6.49542C17.9745 6.48617 18.2072 6.50544 18.4349 6.55279C18.5209 6.57704 18.5997 6.6219 18.6644 6.68348C18.6877 6.70648 18.7077 6.73258 18.7239 6.76104C18.7411 6.78855 18.7547 6.8182 18.7643 6.84923L18.7685 6.86517L18.7728 6.8811C18.7805 6.91274 18.7845 6.94521 18.7845 6.97779V6.99373C18.7832 7.01576 18.7811 7.03774 18.7781 7.0596C18.7726 7.09176 18.7634 7.12315 18.7505 7.1531C18.6959 7.2822 18.6144 7.39813 18.5114 7.4931L17.9323 8.10298L17.3214 8.71179C17.2104 8.81691 17.1162 8.93837 17.042 9.07198C17.0203 9.11381 17.0035 9.15803 16.992 9.20373C16.9738 9.27197 16.9652 9.34242 16.9665 9.41304C16.9681 9.48188 16.9807 9.55003 17.0037 9.61492C17.046 9.74042 17.1132 9.85607 17.2013 9.95492C17.2162 9.97192 17.2321 9.98679 17.2481 10.0027C17.5041 10.2652 17.7666 10.5149 18.0301 10.7762C18.1385 10.8833 18.2701 10.964 18.4147 11.0121C18.5208 11.0427 18.6328 11.0467 18.7409 11.0238C18.885 10.9865 19.0169 10.9121 19.1234 10.8081C19.1399 10.792 19.1558 10.7753 19.1712 10.7582L19.9224 9.99742L20.5333 9.38754C20.5429 9.37724 20.5532 9.36765 20.5641 9.35885L20.5748 9.35035C20.5892 9.33866 20.6045 9.328 20.6205 9.31848L20.6311 9.31104C20.66 9.29576 20.6903 9.28297 20.7214 9.27279C20.7434 9.26514 20.7662 9.25979 20.7894 9.25685C20.8351 9.24904 20.8818 9.24904 20.9275 9.25685C20.9378 9.25826 20.9481 9.26003 20.9583 9.26217C21.0007 9.26955 21.0418 9.28278 21.0805 9.30148C21.1048 9.31325 21.1277 9.32787 21.1485 9.34504C21.1613 9.35477 21.1734 9.36542 21.1846 9.37692L21.1953 9.38967C21.2169 9.41398 21.2361 9.44031 21.2526 9.46829C21.2649 9.49237 21.2755 9.51721 21.2845 9.54267C21.2889 9.55776 21.2928 9.573 21.2962 9.58835C21.3011 9.68179 21.3011 9.77542 21.2962 9.86885V9.91773M8.51114 18.3837C8.35435 18.3802 8.19873 18.4114 8.05544 18.4752C7.91216 18.5389 7.78476 18.6336 7.68239 18.7524C7.51264 18.9525 7.42294 19.2084 7.43058 19.4707C7.43506 19.623 7.47259 19.7726 7.54057 19.909C7.60855 20.0454 7.70536 20.1654 7.8243 20.2607C7.94324 20.3559 8.08147 20.4243 8.22941 20.4608C8.37736 20.4974 8.53149 20.5015 8.68114 20.4726C8.92257 20.4282 9.1407 20.3003 9.29739 20.1114C9.42372 19.9607 9.50545 19.7778 9.53337 19.5832C9.56129 19.3886 9.53429 19.1901 9.45541 19.01C9.37654 18.83 9.24892 18.6755 9.08696 18.5641C8.925 18.4527 8.73513 18.3887 8.53876 18.3795L8.48564 18.3774" fill="#126DFF"/>
<path opacity="0.5" d="M8.38998 6.49512L8.56636 6.53124C8.66623 6.5578 8.76398 6.59074 8.85961 6.62899C9.07417 6.72328 9.2675 6.85988 9.42805 7.03062L9.72661 7.31749L10.0199 7.59693L10.7647 8.36405L11.3756 8.97393L11.773 9.37555L12.1449 9.75912L12.5539 10.1491L13.0427 10.6421L13.2074 10.8184L12.6453 11.3667L12.4562 11.1595L11.7177 10.4232L8.81711 7.52362C8.75221 7.44907 8.67068 7.39083 8.57911 7.35362C8.53987 7.34711 8.49961 7.35116 8.46245 7.36535C8.4253 7.37954 8.39258 7.40336 8.36767 7.43437C8.34131 7.46728 8.32507 7.50715 8.32092 7.54912C8.31769 7.59976 8.32796 7.65036 8.35067 7.69574C8.36986 7.73551 8.39783 7.77039 8.43248 7.79774L8.84155 8.20574L12.0227 11.3667L12.3467 11.678L11.6752 12.3474L11.6136 12.2687L11.5467 12.1837L8.76292 9.40637L7.82792 8.46818C7.77691 8.40844 7.71708 8.35685 7.65048 8.31518C7.62503 8.30371 7.59762 8.29722 7.56973 8.29605H7.55592C7.52588 8.29632 7.4962 8.30259 7.46863 8.3145C7.44105 8.32641 7.41613 8.34371 7.39534 8.3654C7.37455 8.38708 7.35831 8.4127 7.34757 8.44075C7.33683 8.4688 7.3318 8.49872 7.3328 8.52874C7.33694 8.58459 7.3585 8.63772 7.39442 8.68068C7.41858 8.71117 7.44523 8.73961 7.47411 8.76568L11.2354 12.5429C11.2842 12.5907 11.3395 12.6342 11.3947 12.6767L11.0335 13.0231L10.8263 13.1931C10.8263 13.1942 10.7647 13.225 10.7647 13.1942L10.447 12.8839L7.01511 9.46693C6.88469 9.33643 6.77312 9.18838 6.68361 9.02705C6.59501 8.86496 6.5299 8.6911 6.49023 8.51068V7.97412C6.51572 7.83195 6.5567 7.693 6.61242 7.55974C6.69625 7.39166 6.80556 7.23755 6.93648 7.10287C7.11738 6.87785 7.35093 6.70086 7.61648 6.58755C7.70646 6.54884 7.7996 6.51792 7.89486 6.49512H8.3953M15.5098 16.3487L16.3407 15.52H16.3768L16.7125 15.8494L18.0258 17.1594L18.4285 17.5674C18.5499 17.702 18.7185 17.7845 18.8992 17.798C19.0496 17.8174 19.1955 17.8627 19.3305 17.9319C19.386 17.9602 19.4392 17.9925 19.4899 18.0286C19.5898 18.0983 19.6805 18.1804 19.7598 18.2729C19.8363 18.3643 19.9085 18.4599 19.9734 18.5598C20.138 18.8042 20.3091 19.0475 20.4685 19.2908C20.6268 19.5352 20.8223 19.8507 20.9934 20.1249C21.0603 20.2343 21.1336 20.3448 21.1952 20.4606C21.1981 20.4652 21.201 20.4698 21.2037 20.4744L21.2133 20.4893L21.2218 20.5052L21.2292 20.5201C21.2341 20.5306 21.2387 20.5413 21.243 20.552L21.2494 20.5679L21.2547 20.5849L21.259 20.6019L21.2632 20.6189L21.2664 20.6359C21.2675 20.6416 21.2686 20.6473 21.2696 20.6529L21.2717 20.6699L21.2739 20.6869V20.7571L21.2717 20.7741L21.2696 20.7911C21.2696 20.7974 21.2675 20.8017 21.2664 20.8081C21.2664 20.8144 21.2643 20.8187 21.2632 20.8251L21.259 20.8421C21.2577 20.8477 21.2563 20.8534 21.2547 20.8591L21.2494 20.875L21.243 20.892C21.2391 20.9029 21.2344 20.9135 21.2292 20.9239L21.2218 20.9387L21.2133 20.9547L21.2037 20.9696C21.1616 21.0299 21.1104 21.0833 21.0518 21.1279C20.998 21.1688 20.9391 21.2024 20.8765 21.2277C20.8123 21.2471 20.7443 21.2497 20.6789 21.2352C20.5296 21.19 20.3867 21.1257 20.2539 21.0439L19.9617 20.8803L19.5335 20.6253C19.3741 20.5212 19.2158 20.4171 19.0575 20.3076C18.8966 20.1954 18.7397 20.0777 18.5868 19.9549C18.4349 19.8327 18.3244 19.7477 18.2085 19.6319C18.1597 19.583 18.114 19.5312 18.0715 19.4767C18.0397 19.4362 18.0106 19.3936 17.9844 19.3492C17.93 19.2612 17.8861 19.167 17.8537 19.0687C17.8371 19.0199 17.8229 18.9702 17.8112 18.92C17.8112 18.8339 17.775 18.7489 17.7506 18.6629C17.7235 18.579 17.6752 18.5036 17.6104 18.444L15.5279 16.3615L15.4917 16.3307" fill="#126DFF"/>
</svg>
