<svg width="28" height="28" viewBox="0 0 28 28" fill="none" xmlns="http://www.w3.org/2000/svg">
<path opacity="0.5" d="M8.27203 16.042C9.56 17.8096 11.6462 18.9584 14.0007 18.9584C16.3551 18.9584 18.4413 17.8096 19.7293 16.042C21.01 17.3674 21.7923 19.1382 21.7923 21.0834H6.20898C6.20898 19.1382 6.99132 17.3674 8.27203 16.042Z" fill="#7655FA" stroke="#7655FA" stroke-width="1.41667" stroke-linejoin="round"/>
<path d="M14.0007 16.1253C16.5435 16.1253 18.6048 14.064 18.6048 11.5212C18.6048 8.97835 16.5435 6.91699 14.0007 6.91699C11.4578 6.91699 9.39648 8.97835 9.39648 11.5212C9.39648 14.064 11.4578 16.1253 14.0007 16.1253Z" fill="#7655FA" stroke="#7655FA" stroke-width="1.41667" stroke-linejoin="round"/>
<path d="M13.9993 13.2917C14.9773 13.2917 15.7702 12.4988 15.7702 11.5208C15.7702 10.5428 14.9773 9.75 13.9993 9.75C13.0214 9.75 12.2285 10.5428 12.2285 11.5208C12.2285 12.4988 13.0214 13.2917 13.9993 13.2917Z" fill="white" stroke="white" stroke-width="1.41667" stroke-linejoin="round"/>
</svg>
