<svg width="28" height="28" viewBox="0 0 28 28" fill="none" xmlns="http://www.w3.org/2000/svg">
<path d="M7.33203 20.6673V7.33398H9.9987V12.6673L15.332 10.0007V12.6673L20.6654 10.0007V20.6673H7.33203Z" fill="#7655FA" stroke="#7655FA" stroke-width="1.33333" stroke-linejoin="round"/>
<path d="M12.667 14.9336C12.8878 14.9338 13.0664 15.1132 13.0664 15.334V18.001C13.0662 18.2216 12.8876 18.4002 12.667 18.4004H10C9.77919 18.4004 9.59979 18.2217 9.59961 18.001V15.334C9.59961 15.1131 9.77909 14.9336 10 14.9336H12.667Z" fill="#BAAAFD" stroke="white" stroke-width="0.8" stroke-linecap="round" stroke-linejoin="round"/>
<path d="M17.999 14.9336C18.2198 14.9338 18.3984 15.1132 18.3984 15.334V18.001C18.3983 18.2216 18.2197 18.4002 17.999 18.4004H15.332C15.1112 18.4004 14.9318 18.2217 14.9316 18.001V15.334C14.9316 15.1131 15.1111 14.9336 15.332 14.9336H17.999Z" fill="#BAAAFD" stroke="white" stroke-width="0.8" stroke-linecap="round" stroke-linejoin="round"/>
</svg>
