<svg width="28" height="28" viewBox="0 0 28 28" fill="none" xmlns="http://www.w3.org/2000/svg">
<path opacity="0.5" d="M11.5254 6.4625C11.5254 6.35 11.5816 6.2375 11.6379 6.125H8.09414C7.81289 6.125 7.58789 6.35 7.58789 6.63125V9.3875C7.58789 9.55625 7.64414 9.66875 7.75664 9.78125L8.54414 10.4563C8.65664 10.625 8.88164 10.625 9.05039 10.5688C9.72539 9.89375 10.5691 9.33125 11.5254 8.99375V6.4625ZM15.4066 6.4625C15.4066 6.35 15.4629 6.2375 15.5191 6.125H12.4254C12.4816 6.2375 12.5379 6.35 12.5379 6.4625V8.7125C12.9879 8.6 13.4941 8.54375 13.9441 8.54375C14.4504 8.54375 14.9004 8.6 15.3504 8.65625L15.4066 6.4625ZM19.9066 6.125H16.3629C16.4191 6.2375 16.4754 6.35 16.4754 6.4625V9.05C17.4316 9.44375 18.3316 10.0063 19.0629 10.7375C19.1754 10.7375 19.2879 10.6813 19.4004 10.5688L20.2441 9.8375C20.3566 9.725 20.4129 9.6125 20.4129 9.44375V6.63125C20.4129 6.35 20.1879 6.125 19.9066 6.125Z" fill="#02B589"/>
<path d="M14.0004 9.55664C10.6254 9.55664 7.86914 12.3129 7.86914 15.7441C7.86914 19.1754 10.6254 21.8754 14.0004 21.8754C17.3754 21.8754 20.1316 19.1191 20.1316 15.7441C20.1316 12.3691 17.3754 9.55664 14.0004 9.55664ZM15.8004 18.6129L13.9441 17.6004L12.0879 18.5566C12.0879 18.5566 12.0316 18.5566 11.9754 18.5004C11.9191 18.4441 11.9191 18.3879 11.9191 18.3879L12.3129 16.3066L10.7941 14.7879C10.7941 14.7879 10.7379 14.7316 10.7941 14.6754C10.7941 14.6191 10.8504 14.6191 10.8504 14.6191L12.9879 14.3379L13.9441 12.4816C13.9441 12.4816 14.0004 12.4254 14.0566 12.4254C14.1129 12.4254 14.1691 12.4816 14.1691 12.4816L15.0691 14.3941L17.1504 14.7316C17.1504 14.7316 17.2066 14.7879 17.2066 14.8441V14.9566L15.6879 16.4191L16.0254 18.5004C16.0254 18.5004 16.0254 18.5566 15.9691 18.6129C15.9129 18.6691 15.8004 18.6129 15.8004 18.6129Z" fill="#02B589"/>
</svg>
