<svg width="28" height="28" viewBox="0 0 28 28" fill="none" xmlns="http://www.w3.org/2000/svg">
<g clip-path="url(#clip0_1411_7077)">
<path opacity="0.5" d="M18.0344 15.1749C17.8681 15.1751 17.7057 15.1246 17.5688 15.0301C17.4319 14.9357 17.3271 14.8017 17.2682 14.6462L16.4095 12.3838L13.8216 18.0443C13.7566 18.1859 13.6527 18.3062 13.522 18.3909C13.3913 18.4756 13.2391 18.5213 13.0833 18.5227H13.0761C12.9217 18.5227 12.7705 18.4791 12.6399 18.3969C12.5092 18.3146 12.4045 18.197 12.3379 18.0578L10.659 14.5644L9.79848 15.21C9.65659 15.3164 9.48397 15.3739 9.30661 15.3737H6.75195V19.3841C6.75184 19.6461 6.80334 19.9056 6.90351 20.1477C7.00369 20.3897 7.15058 20.6097 7.3358 20.795C7.52101 20.9803 7.74092 21.1273 7.98295 21.2276C8.22499 21.3279 8.48441 21.3795 8.7464 21.3795H19.2375C19.4995 21.3795 19.7589 21.3279 20.001 21.2276C20.243 21.1273 20.4629 20.9803 20.6481 20.795C20.8333 20.6097 20.9802 20.3897 21.0804 20.1477C21.1806 19.9056 21.2321 19.6461 21.232 19.3841V15.1749H18.0344Z" fill="#7655FA"/>
<path d="M9.03415 13.7351L10.4729 12.6561C10.5699 12.5834 10.6818 12.5331 10.8005 12.5089C10.9192 12.4846 11.0419 12.487 11.1596 12.5158C11.2773 12.5446 11.3872 12.5991 11.4813 12.6755C11.5754 12.7518 11.6514 12.8481 11.7039 12.9573L13.0527 15.7746L15.7324 9.92159C15.7996 9.77471 15.9088 9.65099 16.0462 9.566C16.1836 9.48101 16.343 9.43853 16.5045 9.44391C16.6659 9.4493 16.8222 9.5023 16.9536 9.59625C17.085 9.6902 17.1857 9.82091 17.2431 9.97194L18.5973 13.5382H21.2293V8.89379C21.2293 8.36474 21.0192 7.85735 20.6451 7.48318C20.2711 7.109 19.7638 6.89868 19.2348 6.89844H8.7464C8.21736 6.89868 7.71007 7.109 7.33606 7.48318C6.96205 7.85735 6.75195 8.36474 6.75195 8.89379V13.7351H9.03415Z" fill="#7655FA"/>
</g>
<defs>
<clipPath id="clip0_1411_7077">
<rect width="16" height="16" fill="white" transform="translate(6 6)"/>
</clipPath>
</defs>
</svg>
