<svg width="16" height="16" viewBox="0 0 16 16" fill="none" xmlns="http://www.w3.org/2000/svg">
<path d="M9.6671 6.12397L10.0354 5.75571L10.2122 5.57891C10.9281 4.86294 10.9281 3.70214 10.2122 2.98619C9.4962 2.27023 8.3354 2.27023 7.61943 2.98619L3.05692 7.54871C3.03832 7.56731 3.03832 7.59747 3.05692 7.61607L5.38026 9.93941C5.51043 10.0696 5.7215 10.0696 5.85166 9.93941L7.0891 8.70197L7.4574 8.33367" stroke="#333333" stroke-width="1.2" stroke-linecap="round"/>
<path d="M9.38672 2.16143L9.97599 1.57218C10.4316 1.11657 11.1703 1.11657 11.6259 1.57218C12.0815 2.02779 12.0815 2.76648 11.6259 3.22209L11.0367 3.81135L9.38672 2.16143Z" stroke="#333333" stroke-width="1.2" stroke-linecap="round" stroke-linejoin="round"/>
<path d="M3.49431 8.05469L2.08008 9.46889L3.73001 11.1188L5.14421 9.70459L3.49431 8.05469Z" stroke="#333333" stroke-width="1.2" stroke-linecap="round" stroke-linejoin="round"/>
<path d="M7.61903 8.40757C8.20481 8.99335 9.15456 8.99335 9.74035 8.40757C10.3261 7.82178 10.3261 6.87203 9.74035 6.28625C9.15456 5.70046 8.20481 5.70046 7.61903 6.28625C7.03324 6.87203 7.03324 7.82178 7.61903 8.40757Z" stroke="#333333" stroke-width="1.2"/>
<path d="M2 6.66699L6.24263 10.9096" stroke="#333333" stroke-width="1.2" stroke-linecap="round" stroke-linejoin="round"/>
<path d="M3.33398 14.667H14.0007" stroke="#333333" stroke-width="1.2" stroke-linecap="round" stroke-linejoin="round"/>
<path d="M10.334 7.33301C11.6673 7.33301 13.0007 8.66634 13.0007 10.6663C13.0007 12.7997 11.2784 13.9441 10.334 14.6663" stroke="#333333" stroke-width="1.2" stroke-linecap="round" stroke-linejoin="round"/>
</svg>
