<svg width="56" height="56" viewBox="0 0 56 56" fill="none" xmlns="http://www.w3.org/2000/svg">
<circle opacity="0.1" cx="28" cy="28" r="28" fill="#FC5D5D"/>
<path fill-rule="evenodd" clip-rule="evenodd" d="M40.9107 20.0525L36.5471 15.6891C35.6652 14.8072 34.5605 14.7662 33.729 15.5982L18.5698 30.7569L16.6609 38.4837C16.4655 39.561 17.0381 40.1336 18.1154 39.9381L25.8424 38.0293L41.0015 22.8706C41.8335 22.039 41.7926 20.9344 40.9107 20.0525ZM19.0925 37.5066L20.547 31.6883L24.9106 36.0517L19.0925 37.5066ZM35.0925 25.8703C34.6908 26.2721 34.0394 26.2721 33.6377 25.8704L30.7335 22.966C30.3319 22.5643 30.3319 21.9131 30.7335 21.5115C31.1352 21.1098 31.7864 21.1098 32.188 21.5115L35.0924 24.4157C35.494 24.8174 35.4941 25.4686 35.0925 25.8703Z" fill="#FC5D5D"/>
<path opacity="0.5" fill-rule="evenodd" clip-rule="evenodd" d="M19.5646 26.6369C17.5554 24.6278 17.5554 21.3737 19.5646 19.3646C21.5738 17.3554 24.828 17.3554 26.8372 19.3646L28.2917 17.9101C25.4782 15.0967 20.9236 15.0967 18.1101 17.9101C15.2966 20.7235 15.2966 25.278 18.1101 28.0914L19.5646 26.6369ZM37.0192 29.5459C39.0284 31.555 39.0284 34.8095 37.0192 36.8187C35.01 38.8278 31.7558 38.8278 29.7467 36.8187L28.2921 38.2731C31.106 41.0869 35.6603 41.0869 38.4742 38.2731C41.2881 35.4593 41.2876 30.9052 38.4742 28.0914L37.0192 29.5459Z" fill="#FC5D5D"/>
</svg>
