<svg width="16" height="16" viewBox="0 0 16 16" fill="none" xmlns="http://www.w3.org/2000/svg">
<path d="M7.01416 0.599609C7.78983 0.59973 8.41846 1.22919 8.41846 2.00488C8.41834 2.78048 7.78975 3.40906 7.01416 3.40918C6.23846 3.40918 5.60901 2.78055 5.60889 2.00488C5.60889 1.22911 6.23839 0.599609 7.01416 0.599609Z" stroke="#4D4D4D" stroke-width="1.2"/>
<circle cx="5.00917" cy="9.02101" r="1.00233" fill="#4D4D4D"/>
<path d="M10.0208 9.02101C10.0208 9.57458 9.57201 10.0233 9.01844 10.0233C8.46487 10.0233 8.01611 9.57458 8.01611 9.02101C8.01611 8.46743 8.46487 8.01868 9.01844 8.01868C9.57201 8.01868 10.0208 8.46743 10.0208 9.02101Z" fill="#4D4D4D"/>
<path d="M11.1864 10.7703C11.3128 10.4162 11.8135 10.4162 11.9399 10.7703L12.2904 11.7523C12.3307 11.8653 12.4196 11.9543 12.5326 11.9946L13.5147 12.3451C13.8687 12.4715 13.8687 12.9722 13.5147 13.0986L12.5326 13.4491C12.4196 13.4894 12.3307 13.5783 12.2904 13.6913L11.9399 14.6734C11.8135 15.0274 11.3128 15.0274 11.1864 14.6734L10.8359 13.6913C10.7956 13.5783 10.7066 13.4894 10.5936 13.4491L9.61159 13.0986C9.25755 12.9722 9.25755 12.4715 9.61159 12.3451L10.5936 11.9946C10.7066 11.9543 10.7956 11.8653 10.8359 11.7523L11.1864 10.7703Z" fill="#4D4D4D"/>
<path d="M8.10743 14.0326H2C1.44772 14.0326 1 13.5849 1 13.0326V6.44119C1 5.8889 1.44772 5.44119 2 5.44119H12.028C12.5802 5.44119 13.028 5.8889 13.028 6.44119V9.73688M7.01398 3.00696V5.91849" stroke="#4D4D4D" stroke-width="1.2"/>
</svg>
